# xmcd
#
# Track frame offsets:
#	150
#	13402
#	26335
#	38205
#	50935
#	63372
#	76957
#	89515
#	101095
#	113897
#	126505
#	137557
#	149632
#	163585
#	175360
#	189780
#	201987
#	213775
#	225860
#	238875
#
# Disc length: 3356 seconds
#
# Revision: 3
# Processed by: cddbd v1.5.1PL2 Copyright (c) Steve Scherf et al.
# Submitted via: audiograbber 1.82.01
#
DISCID=210d1a14
DTITLE=Roy Acuff - The Essential 1936-1949
DYEAR=1900
DGENRE=Country
TTITLE0=Great Speckle Bird
TTITLE1=Steel Guitar Blues
TTITLE2=Just To Ease My Worried Mind
TTITLE3=Lonesome Old River Blues
TTITLE4=The Precious Jewel
TTITLE5=It Won't Be Long (Till I'll Be Leaving)
TTITLE6=Wreck On The Highway
TTITLE7=Fireball Mail
TTITLE8=Night Train To Memphis
TTITLE9=The Prodigal Son
TTITLE10=Not A Word From Home
TTITLE11=I'll Forgive You, But I Can't Forget You
TTITLE12=Freight Train Blues
TTITLE13=Wabash Cannon Ball
TTITLE14=Jole Blon
TTITLE15=This World Can't Stand Long
TTITLE16=Waltz Of The Wind
TTITLE17=A Sinner's Death (I'm Dying)
TTITLE18=Tennessee Waltz
TTITLE19=Black Mountain Rag
EXTD=
EXTT0=
EXTT1=
EXTT2=
EXTT3=
EXTT4=
EXTT5=
EXTT6=
EXTT7=
EXTT8=
EXTT9=
EXTT10=
EXTT11=
EXTT12=
EXTT13=
EXTT14=
EXTT15=
EXTT16=
EXTT17=
EXTT18=
EXTT19=
PLAYORDER=
